REM DIRINDEX 1\2\6,1\2\7,1\2\8,1\2\9,1\3\10,1\3\11,1\4\12,1\4\13,1\4\14,1\5\15,1\5\16,1\5\17
REM DIRNAME cjc020,folder01,folder02,folder03,folder04,folder05,folder06,folder07,folder08,folder09,folder10,folder11,folder12,folder13,folder14,folder15,folder16
TITLE ""
FILE "1900_3_043 sec08_0701_0715.mp3" MP3
  TRACK 01 AUDIO
    TITLE "0:"
    INDEX 01 00:00:00
  TRACK 02 AUDIO
    TITLE "15:cjc020_7374"
    INDEX 01 00:00:19
  TRACK 03 AUDIO
    TITLE "0:"
    INDEX 01 00:01:64
  TRACK 04 AUDIO
    TITLE "17:cjc020_7375"
    INDEX 01 00:02:67
  TRACK 05 AUDIO
    TITLE "0:"
    INDEX 01 00:04:17
  TRACK 06 AUDIO
    TITLE "16:cjc020_7376"
    INDEX 01 00:04:23
  TRACK 07 AUDIO
    TITLE "0:"
    INDEX 01 00:05:44
  TRACK 08 AUDIO
    TITLE "17:cjc020_7377"
    INDEX 01 00:06:31
  TRACK 09 AUDIO
    TITLE "0:"
    INDEX 01 00:07:41
  TRACK 10 AUDIO
    TITLE "16:cjc020_7378"
    INDEX 01 00:07:47
  TRACK 11 AUDIO
    TITLE "0:"
    INDEX 01 00:08:56
  TRACK 12 AUDIO
    TITLE "17:cjc020_7379"
    INDEX 01 00:09:44
  TRACK 13 AUDIO
    TITLE "0:"
    INDEX 01 00:10:72
  TRACK 14 AUDIO
    TITLE "16:cjc020_7380"
    INDEX 01 00:11:07
  TRACK 15 AUDIO
    TITLE "0:"
    INDEX 01 00:12:16
  TRACK 16 AUDIO
    TITLE "17:cjc020_7381"
    INDEX 01 00:12:73
  TRACK 17 AUDIO
    TITLE "0:"
    INDEX 01 00:14:23
  TRACK 18 AUDIO
    TITLE "16:cjc020_7382"
    INDEX 01 00:14:31
  TRACK 19 AUDIO
    TITLE "0:"
    INDEX 01 00:15:30
  TRACK 20 AUDIO
    TITLE "17:cjc020_7383"
    INDEX 01 00:16:10
  TRACK 21 AUDIO
    TITLE "0:"
    INDEX 01 00:17:04
  TRACK 22 AUDIO
    TITLE "16:cjc020_7384"
    INDEX 01 00:17:10
  TRACK 23 AUDIO
    TITLE "0:"
    INDEX 01 00:18:21
  TRACK 24 AUDIO
    TITLE "17:cjc020_7385"
    INDEX 01 00:19:05
  TRACK 25 AUDIO
    TITLE "0:"
    INDEX 01 00:20:08
  TRACK 26 AUDIO
    TITLE "16:cjc020_7386"
    INDEX 01 00:20:12
  TRACK 27 AUDIO
    TITLE "0:"
    INDEX 01 00:21:04
  TRACK 28 AUDIO
    TITLE "17:cjc020_7387"
    INDEX 01 00:21:64
  TRACK 29 AUDIO
    TITLE "0:"
    INDEX 01 00:22:56
  TRACK 30 AUDIO
    TITLE "16:cjc020_7388"
    INDEX 01 00:22:58
  TRACK 31 AUDIO
    TITLE "0:"
    INDEX 01 00:23:57
  TRACK 32 AUDIO
    TITLE "17:cjc020_7389"
    INDEX 01 00:24:43
  TRACK 33 AUDIO
    TITLE "0:"
    INDEX 01 00:25:41
  TRACK 34 AUDIO
    TITLE "16:cjc020_7390"
    INDEX 01 00:25:54
  TRACK 35 AUDIO
    TITLE "0:"
    INDEX 01 00:26:62
  TRACK 36 AUDIO
    TITLE "17:cjc020_7391"
    INDEX 01 00:27:47
  TRACK 37 AUDIO
    TITLE "0:"
    INDEX 01 00:28:53
  TRACK 38 AUDIO
    TITLE "16:cjc020_7392"
    INDEX 01 00:28:59
  TRACK 39 AUDIO
    TITLE "0:"
    INDEX 01 00:29:68
  TRACK 40 AUDIO
    TITLE "17:cjc020_7393"
    INDEX 01 00:30:55
  TRACK 41 AUDIO
    TITLE "0:"
    INDEX 01 00:31:69
  TRACK 42 AUDIO
    TITLE "16:cjc020_7394"
    INDEX 01 00:32:00
  TRACK 43 AUDIO
    TITLE "0:"
    INDEX 01 00:33:03
  TRACK 44 AUDIO
    TITLE "17:cjc020_7395"
    INDEX 01 00:33:66
  TRACK 45 AUDIO
    TITLE "0:"
    INDEX 01 00:35:45
  TRACK 46 AUDIO
    TITLE "16:cjc020_7396"
    INDEX 01 00:35:51
  TRACK 47 AUDIO
    TITLE "0:"
    INDEX 01 00:36:33
  TRACK 48 AUDIO
    TITLE "17:cjc020_7397"
    INDEX 01 00:37:30
  TRACK 49 AUDIO
    TITLE "0:"
    INDEX 01 00:38:53
  TRACK 50 AUDIO
    TITLE "16:cjc020_7398"
    INDEX 01 00:38:57
  TRACK 51 AUDIO
    TITLE "0:"
    INDEX 01 00:40:07
  TRACK 52 AUDIO
    TITLE "17:cjc020_7399"
    INDEX 01 00:40:66
  TRACK 53 AUDIO
    TITLE "0:"
    INDEX 01 00:43:07
  TRACK 54 AUDIO
    TITLE "16:cjc020_7400"
    INDEX 01 00:43:11
  TRACK 55 AUDIO
    TITLE "0:"
    INDEX 01 00:44:30
  TRACK 56 AUDIO
    TITLE "17:cjc020_7401"
    INDEX 01 00:45:14
  TRACK 57 AUDIO
    TITLE "0:"
    INDEX 01 00:46:29
  TRACK 58 AUDIO
    TITLE "16:cjc020_7402"
    INDEX 01 00:46:33
  TRACK 59 AUDIO
    TITLE "0:"
    INDEX 01 00:47:42
  TRACK 60 AUDIO
    TITLE "17:cjc020_7403"
    INDEX 01 00:48:24
  TRACK 61 AUDIO
    TITLE "0:"
    INDEX 01 00:50:23
  TRACK 62 AUDIO
    TITLE "16:cjc020_7404"
    INDEX 01 00:50:31
  TRACK 63 AUDIO
    TITLE "0:"
    INDEX 01 00:51:44
